<svg width="960" height="720" viewBox="0 0 960 720" fill="none" xmlns="http://www.w3.org/2000/svg">
  <rect width="960" height="720" rx="44" fill="#FBF8F3"/>
  <rect x="48" y="48" width="864" height="624" rx="36" fill="#FFFDFB" stroke="#E6DED4"/>
  <circle cx="181" cy="170" r="70" fill="#EAD8DC"/>
  <circle cx="181" cy="156" r="34" fill="#8C1D2C"/>
  <path d="M122 252C122 216.654 150.654 188 186 188H188C223.346 188 252 216.654 252 252V326H122V252Z" fill="#741826"/>
  <rect x="96" y="326" width="680" height="180" rx="28" fill="#F7F3EE" stroke="#E6DED4"/>
  <rect x="126" y="352" width="216" height="20" rx="10" fill="#D8ECEE"/>
  <rect x="126" y="388" width="168" height="16" rx="8" fill="#EAD8DC"/>
  <rect x="126" y="420" width="236" height="16" rx="8" fill="#EEE6DB"/>
  <rect x="440" y="180" width="312" height="280" rx="28" fill="#FFF" stroke="#E6DED4"/>
  <rect x="468" y="210" width="124" height="22" rx="11" fill="#EAD8DC"/>
  <rect x="468" y="250" width="256" height="18" rx="9" fill="#EEE6DB"/>
  <rect x="468" y="282" width="224" height="18" rx="9" fill="#EEE6DB"/>
  <rect x="468" y="326" width="122" height="88" rx="18" fill="#F5ECE3"/>
  <rect x="608" y="326" width="116" height="88" rx="18" fill="#E8F3F4"/>
  <circle cx="807" cy="192" r="48" fill="#E8F3F4"/>
  <path d="M784 252C784 224.386 806.386 202 834 202C861.614 202 884 224.386 884 252V324H784V252Z" fill="#1F6F78"/>
  <rect x="694" y="506" width="168" height="112" rx="24" fill="#8C1D2C"/>
  <path d="M748 562H806" stroke="#FFFDFB" stroke-width="12" stroke-linecap="round"/>
  <path d="M777 533V591" stroke="#FFFDFB" stroke-width="12" stroke-linecap="round"/>
</svg>
